<svg id="Capa_1" enable-background="new 0 0 512.004 512.004" height="512" viewBox="0 0 512.004 512.004" width="512" xmlns="http://www.w3.org/2000/svg"><g><path d="m511.669 217.038-3.017-17.933c-2.904-17.259-17.122-30.014-34.331-31.246v-74.32c0-8.367-4-16.361-10.7-21.384-3.315-2.484-8.017-1.813-10.5 1.502-2.484 3.314-1.812 8.015 1.502 10.499 2.986 2.238 4.698 5.658 4.698 9.382v74.213h-64.765c.777-7.747-1.851-15.647-7.676-21.473l-35.762-35.762v-16.977c0-6.459 5.255-11.713 11.714-11.713h61.059c4.143 0 7.5-3.358 7.5-7.5s-3.357-7.5-7.5-7.5h-61.059c-14.73 0-26.714 11.983-26.714 26.713v1.979l-9.186-9.186c-10.438-10.439-27.337-10.44-37.778 0l-13.177 13.178c-3.502-10.674-13.554-18.406-25.385-18.406h-84.777c-6.036 0-11.608 2.014-16.086 5.403l-23.474-23.474c-10.416-10.415-27.363-10.415-37.778 0l-59.946 59.946c-10.439 10.439-10.441 27.338 0 37.778l7.28 7.281c-16.362 1.989-29.663 14.438-32.46 31.067l-3.017 17.934c-2.434 14.467 8.717 27.688 23.42 27.688h14.953l38.36 166.016c5.047 21.843 21.683 38.801 43.417 44.255 4.026 1.01 8.093-1.438 9.1-5.449 1.008-4.018-1.431-8.092-5.449-9.1-16.245-4.077-28.68-16.753-32.453-33.083l-37.58-162.639h403.798l-37.579 162.639c-4.683 20.264-22.478 34.416-43.274 34.416h-218.723c-4.142 0-7.5 3.358-7.5 7.5s3.358 7.5 7.5 7.5h218.723c27.821 0 51.626-18.932 57.89-46.039l38.359-166.016h14.953c14.67 0 25.858-13.188 23.42-27.689zm-211.908-120.099c4.576-4.577 11.987-4.578 16.564 0l59.946 59.946c2.919 2.919 4.018 7.029 3.135 10.867h-142.727c-.882-3.838.217-7.948 3.135-10.867zm-145.659 10.878c0-6.459 5.254-11.713 11.713-11.713h84.777c6.459 0 11.714 5.254 11.714 11.713v5.363l-33.099 33.099c-5.825 5.826-8.454 13.726-7.677 21.473h-67.428zm-114.964 25.769 59.946-59.946c4.567-4.568 11.999-4.567 16.565 0l25.058 25.058c-1.037 2.847-1.605 5.919-1.605 9.12v59.935h-82.363l-17.601-17.602c-4.577-4.576-4.578-11.987 0-16.565zm449.111 96.141h-464.494c-5.419 0-9.528-4.848-8.628-10.2l3.017-17.933c1.836-10.917 11.205-18.841 22.276-18.841h431.164c11.07 0 20.44 7.924 22.275 18.841l3.017 17.934c.9 5.344-3.2 10.199-8.627 10.199zm-298.794 131.399c2.929 2.929 7.678 2.929 10.606 0l10.372-10.372h18.68c.611 2.188 1.481 4.267 2.577 6.205l-15.411 15.411c-2.929 2.929-2.929 7.678 0 10.607s7.678 2.929 10.607 0l15.41-15.411c1.937 1.097 4.017 1.967 6.205 2.578v18.68l-10.372 10.372c-2.929 2.929-2.929 7.678 0 10.607s7.678 2.929 10.607 0l7.266-7.265 7.265 7.265c2.928 2.928 7.677 2.93 10.606 0 2.93-2.929 2.93-7.677.001-10.607l-10.372-10.373v-18.679c2.188-.611 4.267-1.481 6.204-2.577l15.41 15.41c2.929 2.929 7.677 2.929 10.607 0 2.929-2.929 2.929-7.677 0-10.607l-15.41-15.411c1.096-1.937 1.966-4.017 2.577-6.204h18.681l10.372 10.372c2.927 2.929 7.677 2.929 10.607 0 2.929-2.929 2.929-7.678-.001-10.607l-7.266-7.266 7.266-7.265c2.93-2.929 2.93-7.678.001-10.607-2.929-2.928-7.678-2.929-10.607 0l-10.373 10.372h-18.68c-.611-2.188-1.481-4.267-2.577-6.204l15.41-15.411c2.929-2.929 2.929-7.678-.001-10.607-2.928-2.93-7.677-2.929-10.606 0l-15.41 15.411c-1.937-1.096-4.017-1.966-6.204-2.577v-18.68l10.372-10.372c2.929-2.929 2.929-7.678-.001-10.607-2.928-2.93-7.677-2.929-10.606 0l-7.265 7.265-7.266-7.265c-2.929-2.929-7.678-2.929-10.607 0s-2.929 7.678 0 10.607l10.372 10.372v18.68c-2.188.611-4.268 1.481-6.205 2.578l-15.41-15.411c-2.928-2.93-7.677-2.929-10.607 0-2.929 2.929-2.929 7.677 0 10.607l15.411 15.411c-1.096 1.937-1.966 4.016-2.577 6.204h-18.68l-10.372-10.372c-2.929-2.93-7.678-2.929-10.606 0-2.929 2.929-2.929 7.678 0 10.607l7.265 7.265-7.265 7.266c-2.929 2.927-2.929 7.676 0 10.605zm66.547-30.792c7.124 0 12.92 5.796 12.92 12.92 0 7.125-5.796 12.92-12.92 12.92s-12.92-5.796-12.92-12.92 5.796-12.92 12.92-12.92z"/></g></svg>